<?xml version="1.0" encoding="UTF-8"?>
<!DOCTYPE svg PUBLIC "-//W3C//DTD SVG 1.1//EN" "http://www.w3.org/Graphics/SVG/1.1/DTD/svg11.dtd">
<!-- Creator: CorelDRAW -->
<svg xmlns="http://www.w3.org/2000/svg" xml:space="preserve" width="210mm" height="297mm" version="1.1" style="shape-rendering:geometricPrecision; text-rendering:geometricPrecision; image-rendering:optimizeQuality; fill-rule:evenodd; clip-rule:evenodd"
viewBox="0 0 21000 29700"
 xmlns:xlink="http://www.w3.org/1999/xlink"
 xmlns:xodm="http://www.corel.com/coreldraw/odm/2003">
 <defs>
  <style type="text/css">
   <![CDATA[
    .fil0 {fill:#27323A;fill-rule:nonzero}
    .fil1 {fill:white;fill-rule:nonzero}
   ]]>
  </style>
 </defs>
 <g id="Слой_x0020_1">
  <metadata id="CorelCorpID_0Corel-Layer"/>
  <path class="fil0" d="M19005.22 13697.74c-132.98,-132.98 -307.24,-199.45 -481.4,-199.45l-4755.83 -0.01 1061.28 -1399.09c67.32,-88.74 103.86,-197.28 103.86,-308.7 0,-78.81 -18.33,-156.74 -53.37,-227.26 -86.41,-174.25 -263.31,-283.33 -457.51,-283.33l-1494.8 0.03 0 -2744.93c0,-281.97 -228.72,-510.69 -510.69,-510.69l-3420.54 0c-281.97,0 -510.69,228.72 -510.69,510.69l0 2744.92 -1521.46 0.01c-0.22,-0.01 -0.59,-0.01 -0.84,-0.01 -193.64,0 -370.67,109.83 -456.66,283.31 -35.01,70.59 -53.28,148.43 -53.28,227.2 0,111.45 36.49,220.04 103.84,308.79l1059.93 1399.09 -4754.46 -0.03c-174.25,0 -348.43,66.46 -481.49,199.45 -132.98,132.98 -199.45,307.24 -199.45,481.47l0 10296.28c0,174.18 66.46,348.43 199.45,481.4 127.31,127.64 300.4,199.51 480.78,199.51 0.17,0 0.58,0 0.75,0l15661.16 0.01c174.18,0 348.43,-66.52 481.4,-199.52 127.66,-127.33 199.51,-300.37 199.51,-480.7 0,-0.17 0,-0.58 0,-0.75l0.01 -10296.23c0,-0.26 0,-0.59 0,-0.84 0,-180.31 -71.92,-353.32 -199.53,-480.6l0.03 -0.02z"/>
  <path class="fil1" d="M8996.22 12301.29c281.97,0 510.69,-228.72 510.69,-510.69l0.01 -2744.92 2399.16 0 0 2744.92c0,281.97 228.79,510.69 510.69,510.69l977.54 0c-751.4,988.16 -2175.75,2867.36 -2701.07,3560.26 -525.34,-692.9 -1951.05,-2570.74 -2701.07,-3560.26l1004.05 0z"/>
  <path class="fil1" d="M8392.45 14519.67l1893.78 2494.89c97.1,127.68 247.39,202.16 406.99,202.16 159.6,0 311.18,-74.5 406.93,-202.16l1892.49 -2494.89 4326.21 0 -6657.57 5738.62 -6603.11 -5738.62 4334.28 0z"/>
  <path class="fil1" d="M3203.07 15128.76l3514.99 3054.81 -3514.99 4879.49 0 -7934.3zm486.72 9006.28l3802.27 -5278.51 2498.91 2171.8c194.2,170.22 442.86,263.31 702.23,263.31 257.99,0 508.03,-93.08 700.88,-262.01l2500.29 -2173.09 3802.21 5278.5 -14006.79 0zm14493.56 -1071.98l-3514.99 -4879.49 3514.99 -3054.81 0 7934.3z"/>
 </g>
</svg>
