<?xml version="1.0" encoding="UTF-8"?>
<!DOCTYPE svg PUBLIC "-//W3C//DTD SVG 1.1//EN" "http://www.w3.org/Graphics/SVG/1.1/DTD/svg11.dtd">
<!-- Creator: CorelDRAW -->
<svg xmlns="http://www.w3.org/2000/svg" xml:space="preserve" width="420mm" height="594mm" version="1.1" style="shape-rendering:geometricPrecision; text-rendering:geometricPrecision; image-rendering:optimizeQuality; fill-rule:evenodd; clip-rule:evenodd"
viewBox="0 0 42000 59400"
 xmlns:xlink="http://www.w3.org/1999/xlink"
 xmlns:xodm="http://www.corel.com/coreldraw/odm/2003">
 <defs>
  <style type="text/css">
   <![CDATA[
    .fil1 {fill:#0E5952}
    .fil3 {fill:#2192EA}
    .fil2 {fill:#E69A58}
    .fil0 {fill:#FEFEFE}
   ]]>
  </style>
   <clipPath id="id0">
    <rect x="2830.52" y="7140.3" width="36124.44" height="36124.44"/>
   </clipPath>
 </defs>
 <g id="Слой_x0020_1">
  <metadata id="CorelCorpID_0Corel-Layer"/>
  <g style="clip-path:url(#id0)">
   <image id="Gemini_Generated_Image_3mam2r3mam2r3mam.png" x="2830.52" y="7140.3" width="36124.44" height="36124.44" xlink:href="LOGO_studyAssist_Images\LOGO_studyAssist_ImgID1.png"/>
  </g>
  <g id="_2239521474800">
   <polygon class="fil0" points="2830.52,43264.74 38954.96,43264.74 38954.96,7140.3 2830.52,7140.3 "/>
   <path class="fil1" d="M21184.89 21051c-166.42,337.99 -390.79,642.87 -329.15,1154.49 73.54,610.31 314.02,741.7 437.08,1045.05 -292.48,219.33 -295.48,451.51 -498.13,533.24 -36.32,-34.68 -448.76,-576.1 -455.27,-590.24 53.46,-140.9 175.04,-269.23 255.64,-472.93 376.27,-950.84 -154.53,-1432.89 -271.38,-1723.34 -196.43,-183.37 -363.15,-352.1 -706.97,-481.75 -307.8,-116.05 -688.97,-174.72 -1049.35,-111.35 -651.2,114.51 -1093.49,520.01 -1314.94,1025.05 -160.85,460.92 -190.81,614.21 -64.54,1112.52 244.95,992.4 1493.14,1535.06 2518.72,1087.2 159.36,-69.59 234.07,-152.82 382.66,-194.22 66.96,114.72 635.81,841.95 732.92,890.32 103.33,-50.3 619.22,-743.15 729.24,-884.58 515.86,192.72 919.15,538.16 1834.04,197.91 492.84,-183.3 958.73,-653.94 1067.39,-1227.05 33.93,-211.17 72.95,-525.59 -47.52,-702.2 -354.61,-58.67 -163.37,-237.07 -185.51,-528.27 -238.88,-374.31 -792.31,-770.45 -1455.91,-809.04 -786.44,-45.74 -1154.55,265.14 -1579.02,679.19z"/>
   <path class="fil0" d="M17187.88 22541.74c-6.51,8.69 -12.37,20.68 -15.57,28.63l-32.59 92.13c-46.81,251.22 38.15,1708.11 72.66,1849.55 196.87,806.91 653.15,1323.41 1303.28,1761.87 189.23,127.62 440.89,255.52 677.38,344.46 1087.99,409.17 2338.68,429.93 3416.27,-18.72 939.6,-391.2 1718.89,-1168.07 1871.87,-2215.51 42.66,-292.03 58.33,-1781.31 -28.33,-1972.83 -108.66,573.11 -574.55,1043.75 -1067.39,1227.05 -914.89,340.25 -1318.18,-5.19 -1834.04,-197.91 -110.02,141.43 -625.91,834.28 -729.24,884.58 -97.11,-48.37 -665.96,-775.6 -732.92,-890.32 -148.59,41.4 -223.3,124.63 -382.66,194.22 -1025.58,447.86 -2273.77,-94.8 -2518.72,-1087.2z"/>
   <path class="fil2" d="M24405.33 21709.12c120.47,176.61 81.45,491.03 47.52,702.2 86.66,191.52 70.99,1680.8 28.33,1972.83 -152.98,1047.44 -932.27,1824.31 -1871.87,2215.51 -1077.59,448.65 -2328.28,427.89 -3416.27,18.72 -236.49,-88.94 -488.15,-216.84 -677.38,-344.46 -650.13,-438.46 -1106.41,-954.96 -1303.28,-1761.87 -34.51,-141.44 -119.47,-1598.33 -72.66,-1849.55l32.59 -92.13c3.2,-7.95 9.06,-19.94 15.57,-28.63 -126.27,-498.31 -96.31,-651.6 64.54,-1112.52 -98.75,-326.78 408.76,-755.68 199.05,-1108.71 -188.95,-318.06 -332.6,-647.93 -444.85,-1052.73l1806.66 748.98c563.84,227.97 1160.83,486.78 1510.4,980.51 116.85,290.45 647.65,772.5 271.38,1723.34 -80.6,203.7 -202.18,332.03 -255.64,472.93 6.51,14.14 418.95,555.56 455.27,590.24 202.65,-81.73 205.65,-313.91 498.13,-533.24 -123.06,-303.35 -363.54,-434.74 -437.08,-1045.05 -61.64,-511.62 162.73,-816.5 329.15,-1154.49 313.39,-777.27 2467.51,-1390.52 3246.48,-1826.9l-3.18 142.34c318.16,-146.92 563.56,-164.35 401.16,-599.09 -303.18,-62.94 -671.72,202.17 -933.51,335.27 -291.63,148.27 -718.56,392.66 -937.67,296.47 -1502.07,-659.49 -2979.14,-596.53 -4467.09,15.63 -203.13,83.57 -307.29,-7.9 -503.78,-91.72l-924.07 -415.92c-70.77,-31.69 -153.56,-76.38 -221.33,-99.93 -615.55,-213.93 -61.18,931.62 26.25,1141.34 328.58,788.18 327.02,361.62 119.69,997.74 -317.26,973.37 -199.87,1674.86 -207.36,2704.07 -9.66,1328.68 477.95,2221.62 1480.77,2879.47 1051.85,690.01 2325.85,868.92 3585.47,651.3 1484.17,-256.41 2815.89,-1286.81 3006.53,-2824.18 50.78,-409.44 4.65,-1012.67 6.31,-1447.43 1.91,-496.96 30.1,-904.75 -108.45,-1375.11 -139.34,31.91 -245.99,92.31 -345.78,174.77z"/>
   <path class="fil0" d="M22360.1 20735.37c-1870.89,389.47 -1280.5,3011.62 585.4,2672.47 690.6,-125.53 1329.66,-757.08 1139.28,-1609.35 -148.12,-663.08 -879.84,-1238.99 -1724.68,-1063.12z"/>
   <path class="fil0" d="M18642.01 20746.19c-690.07,123.58 -1322.11,744.39 -1136.2,1600.41 380.15,1750.29 3231.53,1242.28 2822.24,-532.11 -155.82,-675.53 -818.68,-1223.63 -1686.04,-1068.3z"/>
   <path class="fil3" d="M24459.34 21023.41l-64.74 464.96c179.91,-55.23 238.75,-123.99 371.65,-176.74 216.82,-86.06 715.76,219.22 1211.35,-266.91 149.21,-146.36 292.22,-427.39 276.42,-745.9 -43.38,-874.5 -1147.45,-1298.41 -1856.25,-692.59 -154.91,132.4 -298.93,413.8 -295.26,727.75 4.13,353.55 176.89,549.34 356.83,689.43z"/>
   <path class="fil0" d="M18830.72 19647.33c152.09,87.58 393.49,170.44 560.76,247.18 534.79,245.36 1046.41,566.73 1359.03,1063.41 520.62,-503.83 421.69,-609.05 1318.81,-1071.48 167.8,-86.49 405.75,-151.27 541.6,-257.81 -840,-486.37 -2945.63,-451.22 -3780.2,18.7z"/>
   <path class="fil1" d="M19365.3 28472.91l-16.25 617.8c-188.73,-98.27 -379.67,-258.95 -695.94,-94.86 -695.04,360.61 -142.9,1708.25 687.41,1086.55 56.6,79.4 119.71,200.35 306.01,124.4 158.16,-64.48 86.63,-738.63 86.05,-912.06l-21.15 -815.33c-98.16,-24.64 -258.53,-60.29 -346.13,-6.5z"/>
   <path class="fil0" d="M17252.42 21429.22c221.45,-505.04 663.74,-910.54 1314.94,-1025.05 360.38,-63.37 741.55,-4.7 1049.35,111.35 343.82,129.65 510.54,298.38 706.97,481.75 -349.57,-493.73 -946.56,-752.54 -1510.4,-980.51l-1806.66 -748.98c112.25,404.8 255.9,734.67 444.85,1052.73 209.71,353.03 -297.8,781.93 -199.05,1108.71z"/>
   <path class="fil3" d="M21774.68 29888.08l705.51 -10.16c81.24,116.93 195.84,515.33 471.12,312.75 157.55,-115.94 -577.68,-1545.23 -648.49,-1667.27 -409.66,-90.63 -411.92,49.52 -531.35,346.34 -68.1,169.24 -531.96,1169.61 -498.57,1269.01 54.98,163.66 286.02,72.85 328.38,42.12 58.03,-42.09 117.94,-218.14 173.4,-292.79z"/>
   <path class="fil1" d="M14780.63 28902.39c207.93,-224.86 482.57,43.98 712.61,31.87 301.19,-374.08 -320.88,-464.69 -491.86,-464.66 -361.44,0.06 -666.92,173.65 -656.71,540.5 10.28,369.49 299.64,434.2 626.93,524.28 609.2,167.66 223.42,476.73 -190.83,332.55 -139.52,-48.56 -246.82,-181.39 -363.9,-100.54 -199.21,137.57 -54.95,289.91 72.17,358.58 887.83,479.59 1587.06,-418.81 997.53,-786.77 -341.93,-213.42 -846.27,-130.16 -705.94,-435.81z"/>
   <path class="fil2" d="M19848.77 26423.13c459.88,162.18 461.32,-224.36 615.53,-521.92 139.64,-269.45 244.78,-530.43 393.16,-796.93 120.99,94.49 401.87,709.63 556.25,988.31l136.9 251.08c4.41,6.71 10.42,15.54 14.96,21.8 4.54,6.27 12.27,15.15 16.6,20.64 4.34,5.52 14.22,15.34 17.89,19.71 33.94,40.41 537.27,161.07 311.5,-207.09l-765.77 -1386.94c-207.88,-28.38 -515.61,-68.25 -617.83,98.43 -76.77,125.17 -178.84,363.24 -244.28,497.19 -88.16,180.42 -441.64,854.57 -434.91,1015.72z"/>
   <path class="fil1" d="M19895.54 28953.11c-24.33,225.21 268.43,718.23 364.92,938.11 368.72,840.17 -393.79,190.34 -268.01,794.89 612.66,102 655.89,-185.3 845.68,-634.41 101.9,-241.15 432.59,-871.46 384.28,-1082.24 -592.1,-106.48 -316.16,298.98 -644.05,811.47 -123,-253.91 -217.81,-601.28 -368.06,-825l-314.76 -2.82z"/>
   <path class="fil1" d="M19493.86 21837.56c-95.81,46.98 -13.42,9.25 -75.76,51.85 -36.46,24.9 -37.68,39.87 -94.48,59.23 -91.68,31.25 -456.27,-11.04 -97.58,-368.25 4.86,-4.84 14.75,-13.32 20.21,-21.5 -367.06,-88.96 -589.35,-111.32 -822.47,151.98 -204.54,231.02 -156.7,612.07 10.56,799.72 229.27,257.24 1260.68,405.03 1059.52,-673.03z"/>
   <path class="fil1" d="M23225.49 21804.71c-130.72,70.09 -250.17,268.66 -382.04,65.75 -139.91,-180.21 66.26,-206.27 104.45,-333.13 -850.42,-207.08 -1190.93,507.92 -733.98,968.27 398.86,401.82 1236.47,157.49 1011.57,-700.89z"/>
   <path class="fil1" d="M17723.72 30078.02l89.74 131.3c402.61,30 314.52,-79.57 309.22,-455.93 -3.31,-234.76 44.6,-547.53 -29.17,-764.4 -642.82,-269.51 -157.49,694.49 -464.83,889.56 -494.81,314.06 -363.87,-722.11 -426.8,-906.41 -301.85,-48.82 -349.21,-44.2 -337.78,285.62 5.94,171.25 -10.7,504.79 29.58,650.6 101.42,367.13 629.33,437.2 830.04,169.66z"/>
   <path class="fil3" d="M23785.1 29897.17c-356.63,129.76 -630.24,-308.01 -678.48,189.33 1019.57,483.99 1305.49,-305.67 896.83,-551.63 -217.54,-130.93 -428.03,-71.97 -491.23,-240.13 116.76,-132.46 173.46,-76.47 337.23,-24.08 124.87,39.95 300.19,25.46 268.78,-143.21 -33.09,-177.66 -464.36,-248.98 -685.81,-185.77 -227.51,64.94 -417.29,315.49 -250.81,567.2 168.67,254.99 551.25,140.38 603.49,388.29z"/>
   <path class="fil3" d="M24987.36 29900.42c-265.06,94.45 -343.35,-52.7 -564.63,-69.03 -63.52,68.79 -105.14,107.89 -112.5,249.94 292.8,146.26 822.25,288.99 1016.49,-58.18 199.58,-356.72 -135.99,-510.33 -382.21,-581.47 -154.01,-44.49 -200.73,-31.92 -232.39,-146.94 149.95,-164.42 313.1,7.48 530.63,1.92 46.09,-65.89 56.54,-76.52 80.71,-178.31 -180.32,-288.44 -843.05,-261.2 -972.31,38.27 -240.86,558.07 593.45,476.38 636.21,743.8z"/>
   <path class="fil3" d="M26885.99 29895.9c-253,100.98 -325.46,-42.73 -552.72,-59.45 -73.11,72.63 -87.9,65.37 -106.93,199.12 206.45,264.66 847.79,281.19 1005.78,-10.83 121.19,-223.98 14.78,-429.38 -144.94,-504.52 -157.8,-74.24 -439.31,-91.03 -457.26,-239.88 156.61,-140.92 311.31,18.64 508.06,11.91 326.69,-421.96 -585.17,-473.57 -814.35,-211.56 -220.17,251.69 -51.29,520.92 355.17,637.27 151.73,43.44 187.2,30.24 207.19,177.94z"/>
   <path class="fil1" d="M15969.39 28941.96c-116.23,53.47 -227.65,-14.27 -223.06,173.94 3.92,161.19 139.28,127.66 228.61,178.84 11.66,245.66 -42.04,587.12 84.48,776.09 139.96,209.02 453.5,214.06 659.73,63.16 2.04,-324.5 -129.61,-196.02 -330.71,-247.14l-27.59 -592.15 93.64 -23.46c125.09,-24.65 209.99,-7.65 217.34,-155.53 10.83,-217.91 -136.32,-141.9 -304.74,-162.04 -21.87,-196.95 43.53,-332.71 -172.04,-355.52 -259.31,-27.42 -217.25,132.86 -225.66,343.81z"/>
   <path class="fil3" d="M27570.79 28952.93c-367.79,6.5 -221.96,241.36 -165.76,281.72l165.77 60.09c5.71,427.56 -52.89,1227.22 734.31,854.56 54.33,-716.12 -356.63,397.95 -349,-891.18l290.96 -18.2 9.65 -276.74 -310.1 -16.45 -19.42 -330.17c-374.58,-83.79 -354.51,-0.59 -356.41,336.37z"/>
   <path class="fil3" d="M25598.43 29294.74c-0.22,243.12 -61.84,801.67 49.1,892.52 74.19,60.75 254.19,56.14 313.04,-27.61 57.99,-82.51 21.87,-1086.22 -9.26,-1191.82 -355.13,-83.45 -352.56,-5.97 -352.88,326.91z"/>
   <path class="fil2" d="M24579.64 20404.74c295.06,196.85 459.17,-104.49 581.71,318.34 47.38,163.52 19.69,152.07 143.28,177.54l66.48 -422.44c151.91,-120.88 259.09,-36.19 349.9,-179.27 -121.31,-94.39 -235.16,-19.91 -393.64,-96.6 -84.01,-139.92 -74.84,-335.73 -223.07,-380.95 -61.09,86.25 -45.5,54.79 -60.83,176.85 -52.61,418.7 -99.34,212.56 -372.87,338.92 -110.55,51.07 -37.54,0.25 -90.96,67.61z"/>
   <path class="fil0" d="M18911.84 29280.81c-345.45,151.95 -195.83,773 251.54,613.82 364.89,-129.84 170.66,-799.52 -251.54,-613.82z"/>
  </g>
 </g>
</svg>
